<?xml version="1.0" standalone="no"?><!DOCTYPE svg PUBLIC "-//W3C//DTD SVG 1.1//EN" "http://www.w3.org/Graphics/SVG/1.1/DTD/svg11.dtd"><svg t="1705825255726" class="icon" viewBox="0 0 1024 1024" version="1.1" xmlns="http://www.w3.org/2000/svg" p-id="4353" xmlns:xlink="http://www.w3.org/1999/xlink" width="200" height="200"><path d="M836.1 227.17L595.54 88.28c-52.02-30.03-116.1-30.03-168.12 0l-240.56 138.9c-52.02 30.02-84.07 85.52-84.07 145.59v277.8c0 60.06 32.05 115.56 84.07 145.59l240.56 138.9c52.02 30.03 116.1 30.03 168.12 0l240.57-138.9c52.02-30.03 84.06-85.52 84.07-145.59v-277.8c-0.01-60.07-32.06-115.57-84.08-145.6M603.71 799.92H413.34c-15.19 0-27.5-12.31-27.5-27.5s12.31-27.5 27.5-27.5h190.37c9.82 0 18.9 5.24 23.81 13.75a27.512 27.512 0 0 1 0 27.5 27.47 27.47 0 0 1-23.81 13.75m144.66-178.28c-0.01 10.01-8.14 18.13-18.15 18.13h-10.63v64.73c0 7.29-2.9 14.28-8.05 19.44a27.482 27.482 0 0 1-19.44 8.05H330.88a27.482 27.482 0 0 1-27.49-27.49v-64.73h-10.65c-10.01-0.01-18.12-8.12-18.13-18.13v-53.27c0-10.02 8.11-18.14 18.13-18.15h10.65v-61.68c0-99.4 70.08-182.6 163.37-203.15l15.11-65.09c1.68-7.25 6.23-13.5 12.61-17.34a27.494 27.494 0 0 1 21.22-3.01l28.85 7.65 8.64-36.35c3.78-14.46 18.41-23.26 32.96-19.81 14.54 3.45 23.67 17.89 20.54 32.51l-15.16 63.81a27.303 27.303 0 0 1-12.61 17.23c-6.37 3.8-14 4.88-21.17 3.01l-28.73-7.63-4.82 20.72c108.82 6.64 195.4 96.99 195.4 207.46v61.68h10.63c10.02 0 18.15 8.13 18.15 18.15v53.26z m0 0" fill="#FFFFFF" p-id="4354"></path><path d="M511.47 335.4c-84.44 0-153.11 68.69-153.11 153.11V677h306.21V488.51c0-84.42-68.69-153.11-153.1-153.11m-74.03 205.65c-18.66 0.01-33.8-15.11-33.8-33.77-0.01-18.66 15.11-33.79 33.77-33.8 18.66-0.01 33.8 15.11 33.8 33.77 0.01 18.65-15.11 33.79-33.77 33.8m148.06 0c-18.66 0-33.78-15.13-33.78-33.79 0-18.66 15.13-33.79 33.78-33.79 18.66 0 33.79 15.13 33.79 33.79 0 18.66-15.13 33.79-33.79 33.79" fill="#FFFFFF" p-id="4355"></path><path d="M836.1 227.17L595.54 88.28c-52.02-30.03-116.1-30.03-168.12 0l-240.56 138.9c-52.02 30.02-84.07 85.52-84.07 145.59v277.8c0 60.06 32.05 115.56 84.07 145.59l240.56 138.9c52.02 30.03 116.1 30.03 168.12 0l240.57-138.9c52.02-30.03 84.06-85.52 84.07-145.59v-277.8c-0.01-60.07-32.06-115.57-84.08-145.6M603.71 799.92H413.34c-15.19 0-27.5-12.31-27.5-27.5s12.31-27.5 27.5-27.5h190.37c9.82 0 18.9 5.24 23.81 13.75a27.512 27.512 0 0 1 0 27.5 27.47 27.47 0 0 1-23.81 13.75m144.66-178.28c-0.01 10.01-8.14 18.13-18.15 18.13h-10.63v64.73c0 7.29-2.9 14.28-8.05 19.44a27.482 27.482 0 0 1-19.44 8.05H330.88a27.482 27.482 0 0 1-27.49-27.49v-64.73h-10.65c-10.01-0.01-18.12-8.12-18.13-18.13v-53.27c0-10.02 8.11-18.14 18.13-18.15h10.65v-61.68c0-99.4 70.08-182.6 163.37-203.15l15.11-65.09c1.68-7.25 6.23-13.5 12.61-17.34a27.494 27.494 0 0 1 21.22-3.01l28.85 7.65 8.64-36.35c3.78-14.46 18.41-23.26 32.96-19.81 14.54 3.45 23.67 17.89 20.54 32.51l-15.16 63.81a27.303 27.303 0 0 1-12.61 17.23c-6.37 3.8-14 4.88-21.17 3.01l-28.73-7.63-4.82 20.72c108.82 6.64 195.4 96.99 195.4 207.46v61.68h10.63c10.02 0 18.15 8.13 18.15 18.15v53.26z m0 0" fill="#322D28" p-id="4356"></path><path d="M511.47 335.4c-84.44 0-153.11 68.69-153.11 153.11V677h306.21V488.51c0-84.42-68.69-153.11-153.1-153.11m-74.03 205.65c-18.66 0.01-33.8-15.11-33.8-33.77-0.01-18.66 15.11-33.79 33.77-33.8 18.66-0.01 33.8 15.11 33.8 33.77 0.01 18.65-15.11 33.79-33.77 33.8m148.06 0c-18.66 0-33.78-15.13-33.78-33.79 0-18.66 15.13-33.79 33.78-33.79 18.66 0 33.79 15.13 33.79 33.79 0 18.66-15.13 33.79-33.79 33.79" fill="#322D28" p-id="4357"></path></svg>